<?xml version="1.0" standalone="no"?><!DOCTYPE svg PUBLIC "-//W3C//DTD SVG 1.1//EN" "http://www.w3.org/Graphics/SVG/1.1/DTD/svg11.dtd"><svg t="1526374077280" class="icon" style="" viewBox="0 0 1024 1024" version="1.1" xmlns="http://www.w3.org/2000/svg" p-id="1814" xmlns:xlink="http://www.w3.org/1999/xlink" width="200" height="200"><defs><style type="text/css"></style></defs><path d="M712.32 656a224.736 224.736 0 0 1-193.984 112 224.832 224.832 0 0 1-194.048-112 32 32 0 1 1 55.36-32 160.8 160.8 0 0 0 138.688 80 160.48 160.48 0 0 0 138.56-80A32 32 0 1 1 712.32 656M800.256 256H223.744A63.808 63.808 0 0 0 160 319.744v512.416C160 867.392 188.576 896 223.744 896h576.512A63.872 63.872 0 0 0 864 832.192V319.776A63.84 63.84 0 0 0 800.256 256M512 160c52.928 0 96 43.072 96 96h64c0-88.224-71.776-160-160-160s-160 71.776-160 160h64c0-52.928 43.072-96 96-96" p-id="1815" fill="#39cc7b"></path></svg>