<?xml version="1.0" standalone="no"?><!DOCTYPE svg PUBLIC "-//W3C//DTD SVG 1.1//EN" "http://www.w3.org/Graphics/SVG/1.1/DTD/svg11.dtd"><svg t="1526374704844" class="icon" style="" viewBox="0 0 1024 1024" version="1.1" xmlns="http://www.w3.org/2000/svg" p-id="2510" xmlns:xlink="http://www.w3.org/1999/xlink" width="200" height="200"><defs><style type="text/css"></style></defs><path d="M704 720.544c-14.688 0-27.104 9.92-30.848 23.36h-232.448c-23.904 0-49.152 14.048-62.4 34.016l-34.4 32.64-0.064-12.576a32.48 32.48 0 0 0-3.68-14.752c-12.032-22.752-39.584-39.296-65.6-39.296H224V384h10.656a32 32 0 1 0 0-64h-21.312C183.936 320 160 344.864 160 375.424v377.12c0 30.56 24 55.36 53.472 55.36h61.056a14.144 14.144 0 0 1 5.376 2.144l0.288 45.856a31.936 31.936 0 0 0 6.624 19.328c10.144 13.216 24.992 20.8 40.704 20.768h0.032c14.752 0 28.768-6.72 38.816-18.464l59.104-56.192c1.952-1.856 4.768-5.824 6.176-8.128a15.968 15.968 0 0 1 9.056-5.28h241.984a53.12 53.12 0 0 0 47.296-29.824 31.68 31.68 0 0 0 6.016-18.688v-6.88a32 32 0 0 0-32-32" p-id="2511" fill="#999999"></path><path d="M832 551.936h-50.56c-16.032 0-32.224 6.752-45.44 16.896-3.04 2.336-6.24 4.448-8.896 7.168a68.736 68.736 0 0 0-11.264 15.232 32.256 32.256 0 0 0-3.68 14.72l-0.064 12.64-34.4-32.672c-2.4-3.616-5.536-6.752-8.64-9.92-14.048-14.4-34.176-24.064-53.76-24.064H384V192h448v359.936zM890.848 160c-8.544-18.848-26.848-32-48.192-32H373.344c-21.344 0-39.648 13.152-48.192 32a56.96 56.96 0 0 0-5.152 23.392v377.152c0 5.408 0.992 10.528 2.368 15.456 6.496 23.008 26.752 39.936 50.944 39.936h241.952a15.968 15.968 0 0 1 9.024 5.184 31.392 31.392 0 0 0 6.24 8.224l59.104 56.192c10.048 11.776 24.064 18.464 38.816 18.464h0.032c15.712 0 30.56-7.552 40.704-20.768a31.936 31.936 0 0 0 6.624-19.328l0.288-45.888a13.568 13.568 0 0 1 5.344-2.08h61.088c24.256 0 44.576-16.928 51.072-39.936 1.408-4.928 2.4-10.048 2.4-15.456V183.392A56.96 56.96 0 0 0 890.848 160z" p-id="2512" fill="#999999"></path><path d="M528 320a48 48 0 1 0 0.032 96.032 48 48 0 0 0-0.032-96M688 320a48 48 0 1 0 0.032 96.032 48 48 0 0 0-0.032-96" p-id="2513" fill="#999999"></path></svg>